<svg xmlns="http://www.w3.org/2000/svg" xml:space="preserve" x="0px" y="0px" viewBox="0 0 1000 300"><g fill="#6B1B69"><path d="m420.058 113.675-75.379-77.956h-11.143v125.862h24.82V84.513l74.956 77.068h11.565V35.719h-24.819zM69.713 82.496 52.907 75.76c-14.37-5.793-20.239-11.63-20.239-20.163 0-10.558 11.045-15.366 21.311-15.366 10.861 0 22.838 4.635 35.605 13.774l.379.271 14.045-18.561-.346-.303c-13.45-11.446-30.809-17.748-48.86-17.748-28.285 0-48.816 16.373-48.816 38.918 0 17.608 11.793 31.739 34.111 40.868l17.434 7.136c15.139 6.172 21.896 12.453 21.896 20.358 0 11.717-12.052 16.957-23.996 16.957-11.283 0-26.552-6.183-38.918-15.756l-.401-.303-12.984 18.8.325.282c14.608 12.594 33.136 19.535 52.183 19.535 30.082 0 51.101-16.741 51.101-40.705-.001-17.414-12.453-31.296-37.024-41.258M531.916 142.51c-5.068 0-9.789-2.068-14.024-6.14-4.114-4.277-6.194-9.009-6.194-14.066 0-3.433 1.342-6.757 3.995-9.876 2.87-3.314 5.815-6.01 13.829-11.565l25.242 29.703c-8.447 7.743-16.394 11.944-22.848 11.944m-3.888-100.999c2.761-2.621 6.334-3.942 10.644-3.942 4.169 0 7.678 1.278 10.428 3.812 2.772 2.555 4.18 5.826 4.18 9.713 0 2.697-.769 5.155-2.295 7.342-1.311 1.917-4.754 5.057-7.872 7.06-4.884 3.108-7.58 4.613-7.58 4.613s-2.707-2.382-6.205-6.27c-3.487-3.898-5.382-8.122-5.382-12.095-.001-4.158 1.375-7.602 4.082-10.233m77.328 66.921L587.521 94.16s-11.717 14.456-15.788 18.744l-21.69-25.296c8.728-5.891 16.589-12.875 19.903-17.683 3.845-5.458 5.794-11.641 5.794-18.376 0-9.735-3.552-17.921-10.547-24.321-6.952-6.346-15.832-9.573-26.39-9.573-10.883 0-19.936 3.335-26.899 9.897-6.855 6.573-10.32 15.203-10.32 25.621 0 9.962 4.57 20.152 13.601 30.288l-6.497 4.44c-13.341 9.194-20.109 20.943-20.109 34.923 0 11.727 4.299 21.722 12.767 29.714 8.609 7.883 19.21 11.879 31.522 11.879 13.211 0 24.44-4.537 36.622-16.59l11.597 13.752h32.421l-26.823-31.251a410.678 410.678 0 0 0 18.671-21.896M763.035 20.541h-31.251l-57.317 67.376V20.541H649.42v141.043h25.047v-36.806l21.462-25.155 42.048 61.961h30.992l-56.536-81.096zM273.358 35.723h24.819v125.862h-24.819zM792.334 35.723h24.819v125.862h-24.819zM977.714 35.716h-11.013l-45.989 74.577-45.221-74.577h-11.554l-14.045 125.862h24.96l7.439-66.705 38.41 62.211 38.128-61.767 6.713 66.261h24.939zM213.193 86.105h-58.074V35.719H130.3v125.862h24.819v-51.588h58.074v51.588h24.819V35.719h-24.819zM527.924 275.027h-34.132v-9.984h34.132v9.984zm0-14.749h-34.132v-9.302h-5.837v29.054h45.805v-29.054h-5.837v9.302zM485.432 228.234h22.816v10.656h-22.816v-10.656zm42.492-3.995h-13.98v-12.756h-5.696v11.987h-22.816v-11.987h-5.685v32.475h34.197v-14.652h13.98v16.676h5.837v-36.958h-5.837v15.215zM543.983 256.05h27.43v25.545h5.923V256.05h27.136v-5.067h-60.489zM728.412 209.015h5.685v47.191h-5.685zM951.331 226.174a39.478 39.478 0 0 1-6.963 3.671c-2.74 1.18-5.545 2.079-8.663 3.011l3.443 3.898c2.707-.563 5.306-1.332 7.71-2.317a45.167 45.167 0 0 0 6.714-3.238c2.101-1.288 3.845-2.599 5.328-4.017 1.646-1.483 2.827-2.869 3.444-4.342.79 1.441 1.949 2.826 3.649 4.342 1.613 1.462 3.379 2.74 5.404 3.942a39.745 39.745 0 0 0 6.779 3.314c2.436 1.018 4.96 1.776 7.71 2.317l.087.011 3.357-4.158a50.191 50.191 0 0 1-8.046-2.523c-2.577-.964-4.97-2.176-7.114-3.606-2.112-1.354-3.779-2.848-5.111-4.581-1.397-1.689-2.21-3.638-2.664-5.382h19.752v-5.046H938.89v5.046h19.524c-.325 1.928-1.061 3.66-2.198 5.155-1.257 1.623-2.849 3.095-4.885 4.503M591.592 236.639h-34.576v-19.286h34.576v19.286zm5.696-24.354h-46.109v29.584h46.109v-29.584z"/><path d="M965.328 242.14v-8.187h-5.609v8.187h-31.544v5.609h68.697v-5.609zM899.832 231.567h-11.911v5.067h11.911v43.391h5.458v-69.856h-5.458z"/><path d="M888.728 250.758c-1.873-2.231-3.498-4.786-4.97-7.808-1.375-2.599-2.48-5.555-3.292-8.804-.823-2.913-1.223-5.945-1.223-9.259l-.163-10.688h-5.685v10.688c0 3.086-.379 6.14-1.147 9.107-.79 3.162-1.874 6.129-3.216 8.804a44.726 44.726 0 0 1-4.971 7.97c-1.895 2.469-3.995 4.7-6.443 7.039.303.314 3.942 3.79 3.942 3.79l.108-.098c3.097-2.642 6.053-5.956 8.782-9.865 2.512-3.606 4.483-7.623 5.858-11.933a39.967 39.967 0 0 0 5.956 11.781c2.523 3.714 5.457 7.006 8.912 9.778.617-.606 3.227-3.14 3.909-3.996-2.242-1.795-4.387-3.983-6.357-6.506M913.886 209.025h5.458v72.541h-5.458zM760.724 214.232l-.303.617c-5.284 10.504-7.969 21.387-7.969 32.356s2.685 21.852 7.969 32.356l.26.466h-5.371c-5.599-10.666-8.359-21.657-8.359-32.821 0-10.926 2.761-22.145 8.229-32.973h5.544zM821.857 214.232l.303.617c5.284 10.504 7.969 21.387 7.969 32.356s-2.685 21.852-7.969 32.356l-.26.466h5.371c5.599-10.666 8.359-21.657 8.359-32.821 0-10.926-2.761-22.145-8.219-32.973h-5.554zM974.84 271.353c-.65 1.148-1.516 2.133-2.718 3.108a14.173 14.173 0 0 1-4.18 1.971c-1.7.466-3.476.682-5.425.682-1.981 0-3.801-.227-5.404-.682-1.581-.433-2.945-1.072-4.18-1.971-1.278-.964-2.144-1.949-2.718-3.108-.661-1.169-.985-2.491-.985-4.072 0-3.097 1.191-5.501 3.627-7.331 2.371-1.765 5.631-2.653 9.659-2.653 3.931 0 7.179.866 9.67 2.577 2.393 1.852 3.552 4.277 3.552 7.407 0 1.517-.303 2.881-.898 4.072m1.526-15.181c-1.689-1.224-3.714-2.242-6.042-3.021-2.469-.715-5.122-1.083-7.872-1.083-2.837 0-5.49.368-7.894 1.083-2.339.758-4.375 1.83-6.043 3.184-1.71 1.397-2.956 2.978-3.8 4.808-.878 1.765-1.321 3.822-1.321 6.14 0 2.307.455 4.342 1.397 6.216.802 1.754 2.069 3.335 3.888 4.819 1.603 1.223 3.606 2.242 5.977 3.021 2.523.682 5.079 1.007 7.797 1.007 2.642 0 5.295-.336 7.883-1.007 2.317-.769 4.342-1.787 6.042-3.021 1.733-1.484 3-3.065 3.888-4.819.877-1.939 1.311-3.974 1.311-6.216 0-2.263-.444-4.375-1.321-6.291-.879-1.756-2.146-3.326-3.89-4.82M696.063 255.575h-5.685v24.451h44.657v-5.23h-38.972zM779.728 226.015c.65-1.299 1.57-2.48 2.718-3.498a15.828 15.828 0 0 1 4.147-2.307c1.494-.52 3.151-.78 4.917-.78 1.722 0 3.443.271 4.981.78a15.905 15.905 0 0 1 4.126 2.285 12.917 12.917 0 0 1 2.794 3.509c.66 1.44.985 2.956.985 4.624 0 1.678-.336 3.184-.975 4.472-.726 1.397-1.646 2.556-2.74 3.444-1.137.953-2.48 1.678-4.126 2.231-1.506.563-3.206.845-5.046.845-1.83 0-3.465-.249-4.992-.78-1.679-.563-3.011-1.31-4.072-2.295-1.137-.899-2.057-2.057-2.718-3.454-.693-1.267-1.029-2.718-1.029-4.462.001-1.712.337-3.217 1.03-4.614m-1.267 16.286c1.689 1.483 3.66 2.566 5.837 3.238 2.1.78 4.461 1.17 7.212 1.17 2.728 0 5.1-.379 7.255-1.17a17.085 17.085 0 0 0 5.923-3.238c1.635-1.364 2.956-3.086 3.942-5.122.931-1.993 1.386-4.137 1.386-6.551 0-2.469-.477-4.678-1.462-6.779a16.577 16.577 0 0 0-3.931-5.1c-1.538-1.278-3.443-2.339-5.848-3.238-2.35-.79-4.732-1.17-7.266-1.17s-4.949.39-7.201 1.17c-2.35.856-4.256 1.917-5.847 3.238a17.057 17.057 0 0 0-3.942 5.111c-.964 2.09-1.44 4.299-1.44 6.768s.477 4.613 1.451 6.562c.975 2.036 2.307 3.746 3.931 5.111M762.73 256.152h14.716v23.877h5.793v-23.877h16.135v23.877h5.793v-23.877h14.554v-5.176H762.73zM688.725 238.076c-2.198-2.274-3.26-5.252-3.26-9.118 0-3.855 1.061-6.844 3.26-9.107 2.133-2.22 5.035-3.335 8.641-3.335 3.476 0 6.259 1.094 8.49 3.335 2.122 2.252 3.194 5.328 3.194 9.107 0 1.819-.27 3.487-.833 5.089-.617 1.624-1.397 2.913-2.361 3.952-.974 1.051-2.22 1.917-3.703 2.577-1.506.606-3.119.91-4.786.91-3.629.001-6.531-1.147-8.642-3.41m15.69 7.32c2.133-.758 4.007-1.992 5.588-3.649 1.473-1.473 2.664-3.303 3.65-5.588.866-2.22 1.31-4.646 1.31-7.201 0-2.501-.444-4.895-1.31-7.125-.985-2.285-2.177-4.104-3.65-5.588-1.473-1.462-3.292-2.664-5.588-3.639-2.209-.877-4.613-1.321-7.125-1.321-2.458 0-4.797.411-7.125 1.245-2.274.975-4.104 2.166-5.577 3.638a16.182 16.182 0 0 0-3.65 5.577c-.888 2.068-1.321 4.429-1.321 7.212 0 2.837.433 5.219 1.321 7.277a15.882 15.882 0 0 0 3.65 5.664c1.624 1.635 3.498 2.826 5.577 3.573 2.122.834 4.461 1.235 7.125 1.235 2.729 0 5.068-.433 7.125-1.31M662.658 275.027h-34.132v-9.984h34.132v9.984zm0-14.749h-34.132v-9.302h-5.837v29.054h45.805v-29.054h-5.837v9.302zM620.166 228.234h22.816v10.656h-22.816v-10.656zm42.492-3.995h-13.98v-12.756h-5.696v11.987h-22.816v-11.987h-5.685v32.475h34.197v-14.652h13.98v16.676h5.837v-36.958h-5.837v15.215z"/></g></svg>