<svg xmlns="http://www.w3.org/2000/svg" xml:space="preserve" width="330.69815" height="330.70984" viewBox="0 0 330.69815 330.70984"><g style="stroke-width:.114287"><g style="stroke-width:.114287"><path d="m0 0-11.881-7.624L0-15.25v4.538l-4.662 3.088L0-4.537Z" style="fill:#3d51a6;fill-opacity:1;fill-rule:nonzero;stroke:none;stroke-width:.114287" transform="matrix(11.66648 0 0 -11.66648 161.697 76.393)"/></g><g style="stroke-width:.114287"><path d="m0 0 11.881 7.625L0 15.25v-4.538l4.662-3.087L0 4.538Z" style="fill:#3d51a6;fill-opacity:1;fill-rule:nonzero;stroke:none;stroke-width:.114287" transform="matrix(11.66648 0 0 -11.66648 169 254.307)"/></g><g style="stroke-width:.114287"><path d="M0 0s-1.194-9.083-10.104-10.018c0 0-4.81-.595-8.513 2.581l2.199 2.573S-18.82-2.12-19.313-.416l-4.167 2.757h-.003l3.276 2.34s1.193 9.084 10.103 10.017c0 0 4.811.596 8.514-2.581l-2.199-2.571s2.401-2.745 2.893-4.449l4.168-2.756h.003zm-10.104 16.514c-7.828 0-14.173-6.346-14.173-14.173 0-7.828 6.345-14.174 14.173-14.174S4.069-5.487 4.069 2.341s-6.345 14.173-14.173 14.173" style="fill:#3d51a6;fill-opacity:1;fill-rule:nonzero;stroke:none;stroke-width:.114287" transform="matrix(11.66648 0 0 -11.66648 283.227 192.66)"/></g></g></svg>